<svg fill="none" height="40" viewBox="0 0 24 24" width="40" xmlns="http://www.w3.org/2000/svg"><g stroke="rgb(236 72 153)" stroke-linecap="round" stroke-linejoin="round" stroke-width="1.5"><path d="m22 4.66994v12.07006c0 .96-.78 1.8599-1.74 1.9799l-.33.0401c-2.18.29-5.54 1.3999-7.46 2.4599-.26.15-.69.15-.96 0l-.04-.0199c-1.92003-1.05-5.26997-2.15-7.43997-2.44l-.29004-.0401c-.96-.12-1.73999-1.0199-1.73999-1.9799v-12.08007c0-1.19.96997-2.08999 2.15997-1.98999 2.1.17 5.28 1.23003 7.06003 2.34003l.25.14996c.29.18001.77.18001 1.06 0l.17-.10998c.63-.39 1.43-.78001 2.3-1.13001v4.08002l2-1.33002 2 1.33002v-5.21997c.27-.05.53-.08004.77-.10004h.06c1.19-.1 2.17.78999 2.17 1.98999z"/><path d="m12 5.48999v15.00001"/><path d="m19 2.78003v5.21997l-2-1.33002-2 1.33002v-4.08002c1.31-.52 2.77-.93995 4-1.13995z"/></g></svg>